<svg width="34" height="30" viewBox="0 0 34 30" fill="none" xmlns="http://www.w3.org/2000/svg">
<path d="M26.3335 13.0167L23.9835 10.6667L29.9168 4.75L32.2668 7.1C32.0835 7.15 26.3335 13.0167 26.3335 13.0167ZM18.6668 0H15.3335V8.33333H18.6668V0ZM7.66683 13.0167L10.0168 10.6667L4.10016 4.73333L1.7335 7.1C1.91683 7.15 7.66683 13.0167 7.66683 13.0167ZM30.3335 18.3333H24.6335C23.3502 21.2667 20.4002 23.3333 17.0002 23.3333C13.6002 23.3333 10.6502 21.2667 9.36683 18.3333H3.66683V26.6667H30.3335V18.3333ZM30.3335 15C32.1668 15 33.6668 16.5 33.6668 18.3333V26.6667C33.6668 28.5 32.1668 30 30.3335 30H3.66683C1.8335 30 0.333496 28.5 0.333496 26.6667V18.3333C0.333496 16.5 1.8335 15 3.66683 15H12.0002C12.0002 17.7667 14.2335 20 17.0002 20C19.7668 20 22.0002 17.7667 22.0002 15H30.3335Z" fill="#797979"/>
</svg>
