<svg width="31" height="25" viewBox="0 0 31 25" fill="none" xmlns="http://www.w3.org/2000/svg">
<path d="M27.1665 0.833984H3.83317C2.229 0.833984 0.916504 2.14648 0.916504 3.75065V8.12565H3.83317V3.75065H27.1665V8.12565H30.0832V3.75065C30.0832 2.14648 28.7707 0.833984 27.1665 0.833984Z" fill="#797979"/>
<path d="M27.1665 21.2507H3.83317V16.8757H0.916504V21.2507C0.916504 22.8548 2.229 24.1673 3.83317 24.1673H27.1665C28.7707 24.1673 30.0832 22.8548 30.0832 21.2507V16.8757H27.1665V21.2507Z" fill="#797979"/>
<path d="M19.7144 6.01107C19.2186 5.0194 17.5998 5.0194 17.104 6.01107L12.5832 15.0673L10.9644 11.8444C10.7165 11.3486 10.2207 11.0423 9.6665 11.0423H0.916504V13.959H8.76234L11.2707 18.9902C11.5332 19.4861 12.029 19.7923 12.5832 19.7923C13.1373 19.7923 13.6332 19.4861 13.8811 18.9902L18.4165 9.93398L20.0353 13.1569C20.2832 13.6527 20.779 13.959 21.3332 13.959H30.0832V11.0423H22.2373L19.7144 6.01107Z" fill="#797979"/>
</svg>
