<svg width="27" height="15" viewBox="0 0 27 15" fill="none" xmlns="http://www.w3.org/2000/svg">
<path d="M0.375 8.95898H3.29167V6.04232H0.375V8.95898ZM0.375 14.7923H3.29167V11.8757H0.375V14.7923ZM0.375 3.12565H3.29167V0.208984H0.375V3.12565ZM6.20833 8.95898H26.625V6.04232H6.20833V8.95898ZM6.20833 14.7923H26.625V11.8757H6.20833V14.7923ZM6.20833 0.208984V3.12565H26.625V0.208984H6.20833ZM0.375 8.95898H3.29167V6.04232H0.375V8.95898ZM0.375 14.7923H3.29167V11.8757H0.375V14.7923ZM0.375 3.12565H3.29167V0.208984H0.375V3.12565ZM6.20833 8.95898H26.625V6.04232H6.20833V8.95898ZM6.20833 14.7923H26.625V11.8757H6.20833V14.7923ZM6.20833 0.208984V3.12565H26.625V0.208984H6.20833Z" fill="#797979"/>
</svg>
