<svg width="43" height="42" viewBox="0 0 43 42" fill="none" xmlns="http://www.w3.org/2000/svg">
<path d="M19.2705 27.1958H23.4289V31.3542H19.2705V27.1958ZM19.2705 10.5621H23.4289V23.0373H19.2705V10.5621ZM21.3289 0.166016C9.85169 0.166016 0.557617 9.48088 0.557617 20.9581C0.557617 32.4354 9.85169 41.7502 21.3289 41.7502C32.827 41.7502 42.1418 32.4354 42.1418 20.9581C42.1418 9.48088 32.827 0.166016 21.3289 0.166016ZM21.3497 37.5918C12.1596 37.5918 4.71604 30.1482 4.71604 20.9581C4.71604 11.768 12.1596 4.32444 21.3497 4.32444C30.5398 4.32444 37.9834 11.768 37.9834 20.9581C37.9834 30.1482 30.5398 37.5918 21.3497 37.5918Z" fill="#797979"/>
</svg>
