<svg width="120" height="120" viewBox="0 0 120 120" fill="none" xmlns="http://www.w3.org/2000/svg">
<path opacity="0.1" d="M0 60C0 93.1371 26.8629 120 60 120C93.1371 120 120 93.1371 120 60C120 26.8629 93.1371 0 60 0C26.8629 0 0 26.8629 0 60Z" fill="#D2666D"/>
<path d="M86.869 80.2169L86.8614 79.9869C86.7949 77.9615 86.5512 75.9547 85.9545 74.0162C83.4005 65.72 77.885 60.1513 69.9775 56.7839L70.0167 56.6919L69.9775 56.7839C69.2033 56.454 68.406 56.1959 67.5741 55.9268C67.1602 55.7928 66.7377 55.6561 66.3053 55.5064L66.1011 55.4357L66.2872 55.3258C67.5242 54.5957 68.6011 53.8316 69.5074 52.8863C73.5937 48.6216 75.1157 43.6324 73.6835 37.8415C73.6428 37.679 73.6024 37.5211 73.5583 37.3634C72.0715 32.1122 67.6282 27.8767 62.3279 26.5645C56.5707 25.1419 50.6033 27.0457 46.6488 31.4692L46.6487 31.4692C40.922 37.868 41.6065 47.9216 48.1285 53.501C48.6984 53.9881 49.3098 54.413 49.9232 54.8393C50.1342 54.986 50.3455 55.1328 50.5554 55.2824L50.6274 55.3337L50.5853 55.4115C50.4812 55.6034 50.3193 55.6447 50.2011 55.6748C50.1821 55.6796 50.1643 55.6842 50.1479 55.689L50.1471 55.6893C47.5392 56.4381 45.0586 57.4815 42.7598 58.9223C36.5299 62.8276 32.3246 68.2077 30.6457 75.4448L30.6456 75.445C30.5679 75.7774 30.5256 76.1143 30.4826 76.4568C30.468 76.573 30.4533 76.6898 30.4371 76.8074C30.3747 77.2607 30.2906 77.7184 30.1 78.1585V78.8114C30.1402 78.8635 30.1667 78.9233 30.1667 78.9903C30.1667 79.0573 30.1402 79.1171 30.1 79.1692V84.8721C30.1189 84.8807 30.1363 84.8916 30.1522 84.9047C30.1896 84.9355 30.2121 84.9734 30.2273 85.006C30.2383 85.0297 30.2478 85.0566 30.2553 85.0775C30.2574 85.0835 30.2593 85.089 30.2611 85.0938C30.2705 85.1194 30.2777 85.1349 30.2853 85.1457L30.286 85.1466C30.5151 85.4773 30.7685 85.6933 31.0482 85.8058C31.3272 85.918 31.642 85.9311 32.0016 85.8391L32.0017 85.8391C32.6211 85.681 33.0317 85.1826 33.0563 84.4086L33.0563 84.4085C33.0748 83.8557 33.0739 83.3016 33.0716 82.7456L33.071 82.6171C33.0688 82.1043 33.0665 81.59 33.0785 81.0763L33.0785 81.076C33.1193 79.5187 33.1823 77.9529 33.5104 76.4113C34.7235 70.6817 37.7868 66.1103 42.4812 62.7003C49.0996 57.8919 56.5157 56.5035 64.4769 58.1922C70.1697 59.399 74.9723 62.2147 78.7287 66.6976L78.652 66.7618L78.7287 66.6976C81.5862 70.1084 83.2875 74.0226 83.7453 78.4602C83.8779 79.7359 83.8669 81.0167 83.856 82.2915C83.8513 82.8377 83.8466 83.3828 83.8532 83.926L83.8532 83.9263C83.8569 84.352 83.894 84.7505 84.0794 85.1137C84.3936 85.7272 85.045 86.0066 85.7564 85.8387C86.4338 85.6774 86.8766 85.1059 86.8873 84.2332C86.8873 84.2332 86.8873 84.2331 86.8873 84.233L86.9873 84.2343C87.0017 82.863 87.0125 81.4882 86.9695 80.1166L86.869 80.2169ZM86.869 80.2169L86.8724 80.2134L86.869 80.2169ZM50.1195 55.5932C50.14 55.5871 50.1607 55.5816 50.1814 55.5762C50.2987 55.5454 50.4155 55.5148 50.4974 55.3638C50.2896 55.2158 50.0797 55.0699 49.8695 54.9237C49.2549 54.4966 48.6376 54.0676 48.0635 53.577C41.499 47.9612 40.8099 37.8432 46.5742 31.4025L50.1195 55.5932ZM50.1195 55.5932C47.5041 56.3442 45.0146 57.3911 42.7067 58.8376C36.4571 62.7553 32.2339 68.1565 30.5483 75.4222L50.1195 55.5932ZM30.2038 85.2035C30.6779 85.8879 31.2744 86.1284 32.0264 85.936C32.6932 85.7658 33.1304 85.2257 33.1563 84.4118C33.1762 83.8142 33.1736 83.2155 33.171 82.6169C33.1688 82.1039 33.1665 81.5909 33.1785 81.0786C33.2193 79.5212 33.2822 77.9637 33.6082 76.4321L30.2038 85.2035ZM30.2038 85.2035C30.184 85.1757 30.1719 85.1416 30.1598 85.1075C30.1333 85.033 30.1068 84.9584 30 84.9482L30.2038 85.2035ZM45.7518 41.7755C45.7369 48.7557 51.4159 54.5169 58.4513 54.5019C65.8159 54.4813 71.1947 48.5309 71.2021 41.835C71.2096 34.8328 65.5419 29.0978 58.5439 29.0791C51.4873 29.0605 45.7705 34.7355 45.7518 41.7755V41.7755Z" fill="#D2666D" stroke="#352C3F" stroke-width="0.2"/>
<g clip-path="url(#clip0_567_311)">
<path d="M72.08 94.38C71.23 94.38 70.51 94.08 69.9 93.48C69.3 92.88 68.99 92.15 68.99 91.3V75.88C68.99 75.03 69.29 74.31 69.9 73.7C70.5 73.1 71.23 72.79 72.08 72.79H73.62V69.71C73.62 67.58 74.37 65.76 75.88 64.26C77.38 62.76 79.2 62.01 81.33 62.01C83.46 62.01 85.28 62.76 86.78 64.26C88.28 65.76 89.03 67.58 89.03 69.71V72.79H90.57C91.42 72.79 92.14 73.09 92.75 73.7C93.35 74.3 93.65 75.03 93.65 75.88V91.3C93.65 92.15 93.35 92.87 92.75 93.48C92.15 94.08 91.42 94.38 90.57 94.38H72.08Z" fill="#D2666D" stroke="#352C3F" stroke-width="1.8"/>
<path d="M90.5801 75.8799H72.0801V91.2999H90.5801V75.8799Z" fill="#352C3F"/>
<path d="M76.71 72.7901H85.96V69.7101C85.96 68.4301 85.51 67.3301 84.61 66.4301C83.71 65.5301 82.62 65.0801 81.33 65.0801C80.04 65.0801 78.95 65.5301 78.05 66.4301C77.15 67.3301 76.7 68.4201 76.7 69.7101V72.7901H76.71Z" fill="#352C3F"/>
<path d="M84 81.569C84 80.8601 83.7573 80.2595 83.2638 79.7507C82.7783 79.2502 82.1877 79 81.5 79C80.8123 79 80.2298 79.2502 79.7362 79.7507C79.2508 80.2512 79 80.8601 79 81.569C79 82.278 79.2427 82.8786 79.7362 83.3874C79.8738 83.5292 80.0275 83.646 80.1812 83.7544V86.6404C80.1812 87.3911 80.7718 88 81.5 88C82.2282 88 82.8188 87.3911 82.8188 86.6404V83.7544C82.9725 83.6543 83.1262 83.5375 83.2638 83.3874C83.7492 82.8869 84 82.278 84 81.569Z" fill="#D2666D" stroke="#352C3F"/>
</g>
<defs>
<clipPath id="clip0_567_311">
<rect width="25" height="34" fill="white" transform="translate(69 61)"/>
</clipPath>
</defs>
</svg>
