<svg width="32" height="32" viewBox="0 0 32 32" fill="none" xmlns="http://www.w3.org/2000/svg">
<path d="M29.2132 10.446L23.2132 13.246L19.3299 9.36269V7.02935L23.2132 3.14602L29.2132 5.94602C29.8466 6.24602 30.5799 5.96269 30.8799 5.34602C31.1799 4.71269 30.8966 3.97935 30.2799 3.67935L23.7466 0.629354C23.1132 0.329354 22.3632 0.462688 21.8632 0.962688L18.9632 3.86269C18.6632 3.46269 18.1966 3.19602 17.6632 3.19602C16.7466 3.19602 15.9966 3.94602 15.9966 4.86269V6.52935H10.6966C9.99658 4.59602 8.16325 3.19602 5.99658 3.19602C3.22992 3.19602 0.996582 5.42935 0.996582 8.19602C0.996582 10.0294 1.99658 11.6127 3.46325 12.496L7.79658 26.5294H5.99658C4.16325 26.5294 2.66325 28.0294 2.66325 29.8627V31.5294H24.3299V29.8627C24.3299 28.0294 22.8299 26.5294 20.9966 26.5294H18.2966L10.0132 11.146C10.2966 10.746 10.5299 10.3294 10.6966 9.86269H15.9966V11.5294C15.9966 12.446 16.7466 13.196 17.6632 13.196C18.1966 13.196 18.6632 12.9294 18.9632 12.5294L21.8632 15.4294C22.3632 15.9294 23.1132 16.0627 23.7466 15.7627L30.2799 12.7127C30.9132 12.4127 31.1799 11.6794 30.8799 11.046C30.5799 10.4294 29.8466 10.146 29.2132 10.446ZM5.99658 9.86269C5.07992 9.86269 4.32992 9.11269 4.32992 8.19602C4.32992 7.27935 5.07992 6.52935 5.99658 6.52935C6.91325 6.52935 7.66325 7.27935 7.66325 8.19602C7.66325 9.11269 6.91325 9.86269 5.99658 9.86269ZM14.5132 26.5294H11.2799L7.17992 13.196H7.34658L14.5132 26.5294Z" fill="#797979"/>
</svg>
