<svg width="51" height="38" viewBox="0 0 51 38" fill="none" xmlns="http://www.w3.org/2000/svg">
<path d="M50.3356 23.262C50.3356 17.7729 46.0732 13.3234 40.6673 12.9491C39.2534 5.77586 32.9534 0.390699 25.3851 0.390699C22.6197 0.390699 20.0415 1.13921 17.796 2.40753L20.894 5.50556C22.2871 4.90259 23.7841 4.54912 25.3851 4.54912C31.7059 4.54912 36.8208 9.66398 36.8208 15.9848V17.0244H39.9396C43.3911 17.0244 46.1772 19.8105 46.1772 23.262C46.1772 25.3204 45.1792 27.1086 43.6614 28.2521L46.5931 31.1838C48.8594 29.2709 50.3356 26.464 50.3356 23.262ZM9.60389 0.0996094L6.6722 3.0313L12.4316 8.79071H11.5583C5.29992 9.45606 0.43457 14.758 0.43457 21.1828C0.43457 28.065 6.02765 33.6581 12.9098 33.6581H37.299L41.4574 37.8165L44.3891 34.8848L9.60389 0.0996094ZM12.9098 29.4997C8.31478 29.4997 4.59299 25.7779 4.59299 21.1828C4.59299 16.5878 8.31478 12.866 12.9098 12.866H16.5069L33.1406 29.4997H12.9098Z" fill="#797979"/>
</svg>
