<svg width="42" height="40" viewBox="0 0 42 40" fill="none" xmlns="http://www.w3.org/2000/svg">
<path d="M20.9499 17.1958C18.6628 17.1958 16.7915 19.0671 16.7915 21.3542C16.7915 23.6413 18.6628 25.5125 20.9499 25.5125C23.237 25.5125 25.1082 23.6413 25.1082 21.3542C25.1082 19.0671 23.237 17.1958 20.9499 17.1958ZM33.4249 21.3542C33.4249 14.4721 27.8319 8.87917 20.9499 8.87917C14.0678 8.87917 8.47487 14.4721 8.47487 21.3542C8.47487 25.9699 10.9907 29.9827 14.7124 32.145L16.7915 28.5273C14.3173 27.0719 12.6332 24.4313 12.6332 21.3542C12.6332 16.7592 16.3549 13.0375 20.9499 13.0375C25.5448 13.0375 29.2665 16.7592 29.2665 21.3542C29.2665 24.4313 27.5824 27.0719 25.1082 28.5273L27.1874 32.145C30.9091 29.9827 33.4249 25.9699 33.4249 21.3542ZM20.9499 0.5625C9.47287 0.5625 0.158203 9.87717 0.158203 21.3542C0.158203 29.0471 4.33733 35.742 10.5332 39.339L12.6124 35.742C7.66399 32.852 4.31654 27.5085 4.31654 21.3542C4.31654 12.1642 11.76 4.72083 20.9499 4.72083C30.1398 4.72083 37.5832 12.1642 37.5832 21.3542C37.5832 27.5085 34.2357 32.852 29.2665 35.742L31.3457 39.339C37.5624 35.742 41.7415 29.0471 41.7415 21.3542C41.7415 9.87717 32.4269 0.5625 20.9499 0.5625Z" fill="#797979"/>
</svg>
