<svg width="120" height="120" viewBox="0 0 120 120" fill="none" xmlns="http://www.w3.org/2000/svg">
<path opacity="0.1" d="M0 60C0 93.1371 26.8629 120 60 120V120C93.1371 120 120 93.1371 120 60V60C120 26.8629 93.1371 -4.29153e-06 60 -4.29153e-06V-4.29153e-06C26.8629 -4.29153e-06 0 26.8629 0 60V60Z" fill="#5D97F6"/>
<g clip-path="url(#clip0_628_2)">
<path d="M38.8089 45.7757C35.912 45.7757 33.5557 48.1321 33.5557 51.0289V83.3593C33.5557 84.7486 34.0962 86.0577 35.0801 87.0416C36.0641 88.0255 37.3731 88.5661 38.7625 88.5661H67.4316C68.0903 88.5661 68.5042 88.1438 68.6942 87.8946C69.0996 87.3499 69.2347 86.6109 69.0447 85.9648C68.8167 85.1878 68.1537 84.6261 67.4653 84.6261H38.8089C38.0868 84.6261 37.4956 84.0392 37.4956 83.3128V51.0289C37.4956 50.3068 38.0826 49.7156 38.8089 49.7156H77.5707C78.2928 49.7156 78.884 50.3026 78.884 51.0289V66.1454C78.884 67.1927 79.9059 67.843 80.8561 67.843C81.8062 67.843 82.8282 67.1927 82.8282 66.1454V50.9867C82.8282 49.5974 82.2876 48.2883 81.3037 47.3044C80.3198 46.3204 79.0107 45.7799 77.6213 45.7799H74.4289C73.7067 45.7799 73.1155 45.1929 73.1155 44.4666V38.0352C73.1155 34.0065 71.532 30.2271 68.6562 27.3977C65.7762 24.5684 61.9714 23.044 57.9385 23.1115C49.8475 23.2467 43.2683 30.2017 43.2683 38.6179V44.4624C43.2683 45.1845 42.6813 45.7757 41.955 45.7757H38.8089ZM47.2082 38.0352C47.2082 35.0496 48.3822 32.2583 50.5105 30.1764C52.6431 28.0945 55.4639 26.9881 58.4495 27.0599C64.3573 27.1993 69.1629 32.3216 69.1629 38.4743V44.4666C69.1629 45.1887 68.576 45.7799 67.8496 45.7799H48.5215C47.7994 45.7799 47.2082 45.1929 47.2082 44.4666V38.0352Z" fill="#5D97F6" stroke="#2A314D"/>
<circle cx="79" cy="80" r="16" fill="#2A314D" stroke="#2A314D" stroke-width="2.5"/>
<ellipse cx="78.8283" cy="80.3839" rx="13.6364" ry="13.6364" fill="#2A314D" stroke="#5D97F6" stroke-width="2.5"/>
<path d="M72.2827 80.9787L76.6216 85.3175L85.2992 76.02" stroke="#5D97F6" stroke-width="2.5" stroke-linecap="round" stroke-linejoin="round"/>
<path d="M62.5923 65.3275C62.5923 64.3605 62.2165 63.4525 61.5324 62.7684C60.8483 62.0843 59.9404 61.7085 58.9733 61.7085C56.9759 61.7085 55.3501 63.3343 55.3501 65.3317C55.3501 66.2988 55.7259 67.2067 56.41 67.8908C56.6296 68.1104 56.8703 68.292 57.1279 68.444V73.2918C57.1279 74.3096 57.9514 75.133 58.9691 75.133C59.9868 75.133 60.8103 74.3096 60.8103 73.2918V68.444C61.8744 67.8105 62.5881 66.6577 62.5881 65.3317L62.5923 65.3275Z" fill="#5D97F6" stroke="#2A314D"/>
</g>
<defs>
<clipPath id="clip0_628_2">
<rect width="60" height="72" fill="white" transform="translate(33.5557 23.1113)"/>
</clipPath>
</defs>
</svg>
