<svg width="16" height="17" viewBox="0 0 16 17" fill="none" xmlns="http://www.w3.org/2000/svg">
<path d="M15.9893 15.1754C15.9706 14.6045 15.9019 14.0377 15.7335 13.4896C15.0139 11.1487 13.4593 9.57733 11.2329 8.62785C10.9064 8.48849 10.5632 8.39386 10.2003 8.26802C10.5486 8.06211 10.8533 7.8458 11.1102 7.57749C12.2634 6.37218 12.6939 4.95992 12.2894 3.32199C12.278 3.27623 12.2665 3.23152 12.254 3.1868C11.8339 1.7007 10.5788 0.50267 9.08137 0.131406C7.455 -0.271058 5.76936 0.26764 4.65253 1.51871C3.03449 3.32927 3.2279 6.17355 5.07057 7.75221C5.28686 7.93732 5.52499 8.09123 5.75377 8.25451C5.72673 8.30442 5.68617 8.30754 5.6477 8.31898C4.91354 8.53009 4.21475 8.8244 3.5669 9.23102C1.81263 10.3323 0.627168 11.8507 0.154024 13.8931C0.0947509 14.1469 0.107229 14.4131 0.00012207 14.6565V14.8561C0.0250791 14.8832 0.0250791 14.9092 0.00012207 14.9362V16.571C0.0437969 16.5752 0.0396374 16.6178 0.0573153 16.6428C0.19042 16.8352 0.35784 16.9028 0.568935 16.8487C0.756113 16.8009 0.878819 16.649 0.886098 16.4202C0.896497 16.1083 0.885058 15.7952 0.892337 15.4832C0.903776 15.0454 0.921454 14.6076 1.01296 14.1771C1.35196 12.5734 2.20778 11.2943 3.52011 10.3396C5.37109 8.99287 7.44461 8.60393 9.67202 9.07711C11.2641 9.4151 12.6066 10.2034 13.6568 11.4586C14.4555 12.4133 14.9307 13.5084 15.0586 14.7501C15.1116 15.2607 15.0825 15.7723 15.0887 16.284C15.0898 16.4046 15.1002 16.5222 15.1553 16.6303C15.2499 16.8154 15.4465 16.8986 15.6576 16.8487C15.8624 16.7998 15.9934 16.6262 15.9966 16.3703C16.0007 15.972 16.0038 15.5727 15.9903 15.1744L15.9893 15.1754ZM7.98638 7.98412C6.02725 7.98828 4.4456 6.38154 4.44976 4.43474C4.45496 2.47131 6.04701 0.888494 8.01238 0.893694C9.96111 0.898893 11.5396 2.49835 11.5376 4.45138C11.5355 6.31915 10.037 7.97892 7.98534 7.98412H7.98638Z" fill="#5D97F6"/>
</svg>
